<svg xmlns="http://www.w3.org/2000/svg" viewBox="0 0 32 32">
  <rect width="32" height="32" rx="6" fill="#09090b"/>
  <g transform="translate(5.5, 2) scale(0.00326, -0.00326) translate(0, -8710)" fill="#fafaf9">
    <path d="M3163 8658 c-27 -29 -124 -136 -213 -238 -90 -102 -207 -235 -262
-297 -54 -62 -103 -115 -108 -118 -6 -4 -10 -88 -10 -214 l0 -207 -32 -11
c-68 -23 -384 -122 -410 -129 l-28 -6 -1 233 c-1 129 -1 240 0 247 1 6 -1 12
-5 12 -10 0 -236 -71 -499 -157 -126 -42 -250 -81 -275 -88 l-45 -12 -5 -249
-5 -249 -85 -29 c-47 -15 -137 -44 -200 -63 -63 -19 -123 -37 -132 -40 -17 -5
-18 11 -18 240 0 135 -3 248 -7 250 -9 5 -121 -28 -483 -144 -140 -45 -274
-86 -298 -92 l-43 -11 4 -1610 c3 -1610 3 -1611 25 -1751 66 -412 98 -548 194
-825 234 -677 623 -1279 1187 -1840 461 -458 1016 -867 1521 -1120 52 -26 120
-61 150 -76 129 -67 133 -68 192 -42 95 41 350 174 508 265 441 255 836 559
1229 947 478 470 796 917 1065 1494 175 374 292 799 346 1252 20 171 20 210
18 1740 l-3 1565 -245 77 c-374 119 -563 178 -572 178 -4 0 -8 -113 -8 -251 0
-250 0 -250 -21 -244 -12 4 -49 15 -83 25 -68 21 -231 73 -288 92 -45 15 -41
-9 -42 275 -1 121 -4 224 -7 227 -12 13 -789 266 -815 266 -5 0 -9 -106 -8
-245 0 -135 -2 -245 -5 -245 -3 0 -100 29 -216 65 -115 36 -215 65 -222 65
-26 0 -33 53 -33 241 0 166 -2 191 -17 207 -10 10 -67 74 -128 142 -409 459
-492 550 -504 550 -4 0 -30 -24 -58 -52z m157 -1638 c214 -66 512 -160 1110
-350 221 -70 447 -140 535 -167 28 -8 59 -19 70 -24 19 -9 230 -75 365 -115
36 -10 142 -44 235 -75 l170 -57 3 -948 c2 -605 -1 -997 -8 -1080 -18 -232
-87 -563 -165 -799 -271 -817 -916 -1621 -1760 -2196 -237 -161 -613 -379
-655 -379 -27 0 -263 132 -455 255 -404 258 -675 475 -966 772 -262 267 -396
435 -606 755 -259 396 -434 852 -512 1333 -50 304 -53 391 -49 1379 l3 908 35
13 c37 15 306 101 480 154 58 18 188 59 290 91 102 32 253 80 335 105 288 90
650 204 710 223 33 11 134 43 225 71 91 28 239 75 330 105 91 30 170 55 175
55 6 1 53 -12 105 -29z"/>
    <path d="M3169 6770 c-30 -10 -128 -41 -219 -70 -91 -28 -176 -56 -189 -61
-14 -6 -83 -28 -155 -49 -135 -40 -222 -67 -531 -164 -99 -32 -274 -86 -390
-122 -115 -36 -329 -104 -475 -151 -146 -46 -276 -88 -290 -92 l-25 -8 -3
-869 c-3 -947 0 -1047 48 -1309 31 -167 105 -424 167 -579 44 -111 145 -315
226 -456 214 -374 534 -754 907 -1075 167 -145 189 -161 475 -362 142 -100
483 -303 508 -303 27 0 344 187 505 298 434 298 758 594 1058 967 430 534 693
1147 754 1754 6 62 10 464 10 1017 l0 913 -162 52 c-90 28 -215 69 -278 89
-63 21 -176 57 -250 80 -74 23 -153 48 -175 56 -22 7 -80 25 -130 40 -49 14
-191 59 -315 100 -124 40 -265 85 -315 99 -49 15 -135 42 -190 60 -55 19 -158
52 -230 73 -71 22 -164 51 -206 65 -76 24 -77 24 -130 7z m51 -2815 c0 -1416
-3 -2575 -7 -2575 -11 0 -216 122 -283 169 -320 223 -530 392 -734 591 -594
580 -932 1202 -1048 1924 -22 138 -23 157 -23 976 l0 835 75 23 c41 13 166 52
278 88 112 36 249 79 305 95 56 17 194 59 307 95 183 58 271 86 615 194 276
87 453 142 475 150 14 5 28 9 33 9 4 1 7 -1158 7 -2574z"/>
  </g>
</svg>
